# xmcd CD database file
# Copyright (C) 1997 Ti Kan
#
# Track frame offsets:
#  150
#  17235
#  45172
#  66507
#  81007
#  101154
#  122057
#  140012
#  160282
#  177467
#  195182
#  211720
#  225705
#  242755
#  257245
#  278755
#
# Disc length: 3927 seconds
#
# Revision: 2
# Processed by: cddbd v1.4PL0 Copyright (c) Steve Scherf et al.
# Submitted via: Gronk 1.4
#
DISCID=de0f5510
DTITLE=Kenny Neal - Kenny Neal Deluxe Edition
DYEAR=1900
DGENRE=blues
TTITLE0=Caught In the Jaws of a Vise
TTITLE1=That Knife Don't Cut No More
TTITLE2=Outside Looking In
TTITLE3=Hoodoo Moon
TTITLE4=The Truth Hurts
TTITLE5=Caught Your Back Door Man
TTITLE6=Evalina
TTITLE7=Baby Bee
TTITLE8=Neal and Prey
TTITLE9=Any Fool Will Do
TTITLE10=Lightning's Gonna Strike
TTITLE11=Morning After
TTITLE12=The Son I Never Knew
TTITLE13=Howling At the Moon
TTITLE14=Change My Way of Livin'
TTITLE15=Believe In Yourself
EXTD=
EXTT0=
EXTT1=
EXTT2=
EXTT3=
EXTT4=
EXTT5=
EXTT6=
EXTT7=
EXTT8=
EXTT9=
EXTT10=
EXTT11=
EXTT12=
EXTT13=
EXTT14=
EXTT15=
PLAYORDER=
